<svg xmlns="http://www.w3.org/2000/svg" xmlns:xlink="http://www.w3.org/1999/xlink" width="20" zoomAndPan="magnify" viewBox="0 0 30 30.000001" height="20" preserveAspectRatio="xMidYMid meet" version="1.0"><defs><clipPath id="id1"><path d="M 3.714844 1.140625 L 26.214844 1.140625 L 26.214844 27.996094 L 3.714844 27.996094 Z M 3.714844 1.140625 " clip-rule="nonzero"/></clipPath></defs><g clip-path="url(#id1)"><path fill="rgb(100%, 100%, 100%)" d="M 13.921875 27.578125 C 14.195312 27.847656 14.570312 27.996094 14.964844 27.996094 C 15.359375 27.996094 15.714844 27.847656 16.007812 27.578125 L 25.628906 17.882812 C 26.191406 17.316406 26.191406 16.371094 25.628906 15.804688 L 24.753906 14.925781 C 24.484375 14.652344 24.109375 14.503906 23.734375 14.503906 C 23.339844 14.503906 22.941406 14.652344 22.671875 14.925781 L 17.007812 20.570312 L 17.007812 2.609375 C 17.007812 1.792969 16.421875 1.140625 15.609375 1.140625 L 14.382812 1.140625 C 13.570312 1.140625 12.839844 1.792969 12.839844 2.609375 L 12.839844 20.632812 L 7.195312 14.925781 C 6.925781 14.652344 6.570312 14.503906 6.175781 14.503906 C 5.78125 14.503906 5.425781 14.652344 5.15625 14.925781 L 4.300781 15.804688 C 3.738281 16.371094 3.738281 17.316406 4.300781 17.882812 Z M 13.921875 27.578125 " fill-opacity="1" fill-rule="nonzero"/></g></svg>