<svg xmlns="http://www.w3.org/2000/svg" xmlns:xlink="http://www.w3.org/1999/xlink" width="28" zoomAndPan="magnify" viewBox="0 0 37.5 37.499999" height="28" preserveAspectRatio="xMidYMid meet" version="1.0"><defs><clipPath id="id1"><path d="M 0.984375 28 L 36.234375 28 L 36.234375 32.6875 L 0.984375 32.6875 Z M 0.984375 28 " clip-rule="nonzero"/></clipPath><clipPath id="id2"><path d="M 0.984375 4.9375 L 36.234375 4.9375 L 36.234375 9 L 0.984375 9 Z M 0.984375 4.9375 " clip-rule="nonzero"/></clipPath><clipPath id="id3"><path d="M 0.984375 16 L 36.234375 16 L 36.234375 21 L 0.984375 21 Z M 0.984375 16 " clip-rule="nonzero"/></clipPath></defs><g clip-path="url(#id1)"><path fill="rgb(100%, 100%, 100%)" d="M 34.265625 28.722656 L 2.949219 28.722656 C 1.871094 28.722656 0.992188 29.621094 0.992188 30.703125 C 0.992188 31.796875 1.871094 32.6875 2.949219 32.6875 L 34.265625 32.6875 C 35.335938 32.6875 36.222656 31.796875 36.222656 30.703125 C 36.222656 29.621094 35.335938 28.722656 34.265625 28.722656 " fill-opacity="1" fill-rule="nonzero"/></g><g clip-path="url(#id2)"><path fill="rgb(100%, 100%, 100%)" d="M 2.949219 8.898438 L 34.265625 8.898438 C 35.335938 8.898438 36.222656 8.003906 36.222656 6.917969 C 36.222656 5.835938 35.335938 4.9375 34.265625 4.9375 L 2.949219 4.9375 C 1.871094 4.9375 0.992188 5.835938 0.992188 6.917969 C 0.992188 8.003906 1.871094 8.898438 2.949219 8.898438 " fill-opacity="1" fill-rule="nonzero"/></g><g clip-path="url(#id3)"><path fill="rgb(100%, 100%, 100%)" d="M 34.265625 16.828125 L 2.949219 16.828125 C 1.871094 16.828125 0.992188 17.726562 0.992188 18.8125 C 0.992188 19.894531 1.871094 20.792969 2.949219 20.792969 L 34.265625 20.792969 C 35.335938 20.792969 36.222656 19.894531 36.222656 18.8125 C 36.222656 17.726562 35.335938 16.828125 34.265625 16.828125 " fill-opacity="1" fill-rule="nonzero"/></g></svg>